<?xml version="1.0" standalone="no"?>
<!DOCTYPE svg PUBLIC "-//W3C//DTD SVG 20010904//EN"
 "http://www.w3.org/TR/2001/REC-SVG-20010904/DTD/svg10.dtd">
<svg version="1.0" xmlns="http://www.w3.org/2000/svg"
 width="1000.000000pt" height="1000.000000pt" viewBox="0 0 1000.000000 1000.000000"
 preserveAspectRatio="xMidYMid meet">
<metadata>
Created by potrace 1.14, written by Peter Selinger 2001-2017
</metadata>
<g transform="translate(0.000000,1000.000000) scale(0.100000,-0.100000)"
fill="#000000" stroke="none">
<path d="M4111 9300 c-529 -384 -1001 -731 -1049 -770 -787 -645 -1272 -1578
-1353 -2605 -15 -184 -7 -552 16 -725 22 -176 70 -409 120 -585 76 -268 73
-274 74 165 2 784 35 1107 153 1509 308 1056 1065 1922 2065 2366 469 209 879
297 1506 323 l168 7 -342 470 c-187 259 -353 487 -369 507 l-27 38 -962 -700z"/>
<path d="M4850 7193 c-19 -2 -81 -13 -138 -24 -266 -53 -453 -150 -638 -334
-278 -275 -438 -679 -512 -1290 -21 -179 -24 -797 -4 -980 54 -491 167 -859
353 -1140 68 -102 206 -245 306 -317 289 -208 698 -288 1123 -222 304 47 583
219 772 474 78 107 238 388 238 420 0 6 -28 24 -62 39 -35 16 -132 60 -216 99
l-153 70 -58 -123 c-75 -157 -144 -257 -242 -349 -135 -127 -286 -189 -492
-202 -239 -15 -459 45 -624 170 -200 151 -341 450 -400 846 -21 140 -30 1031
-14 1252 34 443 153 755 364 955 125 119 284 190 478 214 429 53 748 -140 938
-566 51 -114 44 -108 104 -81 171 77 373 170 376 172 12 10 -125 263 -211 392
-75 113 -263 295 -367 356 -155 91 -301 140 -484 165 -73 10 -357 13 -437 4z"/>
<path d="M7920 5320 c0 -360 -5 -727 -10 -815 -23 -373 -83 -676 -199 -1017
-259 -756 -778 -1428 -1451 -1878 -558 -372 -1180 -579 -1867 -620 -91 -6
-168 -12 -171 -14 -2 -2 153 -221 345 -485 240 -331 353 -480 364 -477 26 6
1917 1385 2039 1487 241 203 514 505 686 759 257 381 450 827 549 1272 176
784 102 1564 -217 2308 -27 63 -53 119 -59 125 -5 5 -9 -233 -9 -645z"/>
</g>
</svg>
